<svg width="1236" height="262" viewBox="0 0 1236 262" fill="none" xmlns="http://www.w3.org/2000/svg">
<path d="M226.172 232.957H268.193V151.053H275.996C278.698 157.354 281.099 161.854 284.1 166.354L328.822 232.957H378.347L319.518 147.153C351.333 140.253 369.943 119.852 369.943 86.5501C369.943 45.448 341.128 23.9687 294.005 24.2687L226.172 24.5687V232.957ZM268.193 113.251V60.7487H291.604C314.415 60.7487 327.322 70.0491 327.322 86.8501C327.322 103.951 314.415 113.251 291.604 113.251H268.193Z" fill="#131313"/>
<path d="M449.295 236.856C477.209 236.856 491.316 225.156 499.72 207.455V232.956H539.039V76.9484H498.82V101.55C490.415 84.7487 476.309 73.6484 449.295 73.6484C406.374 73.6484 372.158 110.55 372.158 155.552C372.158 200.554 406.374 236.856 449.295 236.856ZM412.677 155.252C412.677 130.951 430.086 110.25 455.899 110.25C482.612 110.25 499.72 131.251 499.72 155.552C499.72 179.853 482.612 200.254 455.899 200.254C430.086 200.254 412.677 178.953 412.677 155.252Z" fill="#131313"/>
<path d="M631.545 236.856C659.456 236.856 673.567 225.156 681.968 207.455V232.956H721.29V24.7578H680.767V100.95C672.365 84.4486 658.259 73.6484 631.545 73.6484C588.624 73.6484 554.407 110.55 554.407 155.552C554.407 200.554 588.624 236.856 631.545 236.856ZM594.927 155.252C594.927 130.951 612.335 110.25 638.146 110.25C664.86 110.25 681.968 131.251 681.968 155.552C681.968 179.853 664.86 200.254 638.146 200.254C612.335 200.254 594.927 178.953 594.927 155.252Z" fill="#131313"/>
<path d="M742.66 232.954H783.179V87.2188H742.66V232.954Z" fill="#131313"/>
<path d="M875.572 236.856C903.488 236.856 917.594 225.156 925.999 207.455V232.956H965.318V76.9484H925.099V101.55C916.694 84.7487 902.588 73.6484 875.572 73.6484C832.654 73.6484 798.435 110.55 798.435 155.552C798.435 200.554 832.654 236.856 875.572 236.856ZM838.954 155.252C838.954 130.951 856.363 110.25 882.178 110.25C908.892 110.25 925.999 131.251 925.999 155.552C925.999 179.853 908.892 200.254 882.178 200.254C856.363 200.254 838.954 178.953 838.954 155.252Z" fill="#131313"/>
<path d="M986.688 232.951H1027.21V147.447C1027.21 120.446 1042.51 108.745 1059.63 108.745C1079.74 108.745 1093.24 120.446 1093.24 147.447V232.951H1133.76V137.547C1133.76 98.245 1107.95 73.3438 1074.33 73.3438C1050.32 73.3438 1034.71 82.344 1026.61 99.745V76.9437H986.688V232.951Z" fill="#131313"/>
<path d="M1210.19 232.951H1232.4V196.95H1215.59C1207.79 196.95 1202.98 192.45 1202.98 182.549V111.446H1236V76.9438H1202.98V41.2422L1162.46 45.4424V76.9438H1140.55V111.446H1162.46V184.649C1162.46 218.551 1179.27 232.951 1210.19 232.951Z" fill="#131313"/>
<path d="M742.66 65.0725H783.179V24.7578H742.66V65.0725Z" fill="#131313"/>
<g clip-path="url(#clip0_491_77)">
<path d="M128.593 26.6977V58.8125H-0.0083313V26.6977H128.593Z" fill="#32CCFF"/>
<path fill-rule="evenodd" clip-rule="evenodd" d="M-0.00622559 155.162C-0.00558707 84.2164 57.5699 26.7041 128.593 26.7031V58.818C75.326 58.819 32.1447 101.953 32.1441 155.162H-0.00622559Z" fill="#32CCFF"/>
<path fill-rule="evenodd" clip-rule="evenodd" d="M-0.00476074 155.162C-0.00412222 84.2169 57.5706 26.7049 128.593 26.7031V58.8179C75.3267 58.8198 32.1462 101.953 32.1455 155.162H-0.00476074Z" fill="#32CCFF"/>
<path d="M0 232.998V200.883H128.602V232.998H0Z" fill="#32CCFF"/>
<path fill-rule="evenodd" clip-rule="evenodd" d="M128.601 104.539C128.601 175.485 71.0239 232.997 0 232.997V200.883C53.2679 200.883 96.4498 157.748 96.4506 104.539H128.601Z" fill="#32CCFF"/>
<path fill-rule="evenodd" clip-rule="evenodd" d="M128.601 104.539C128.601 175.485 71.0239 232.997 0 232.997V200.883C53.2679 200.883 96.4498 157.748 96.4506 104.539H128.601Z" fill="#32CCFF"/>
</g>
<defs>
<clipPath id="clip0_491_77">
<rect width="136" height="209" fill="white" transform="translate(0 24)"/>
</clipPath>
</defs>
</svg>
